<?xml version="1.0" standalone="no"?><!DOCTYPE svg PUBLIC "-//W3C//DTD SVG 1.1//EN" "http://www.w3.org/Graphics/SVG/1.1/DTD/svg11.dtd"><svg width="100%" height="100%" viewBox="0 0 173 173" version="1.1" xmlns="http://www.w3.org/2000/svg" xmlns:xlink="http://www.w3.org/1999/xlink" xml:space="preserve" style="fill-rule:evenodd;clip-rule:evenodd;stroke-linejoin:round;stroke-miterlimit:1.41421;"><clipPath id="_clip1"><rect id="Prancheta4" x="0" y="0" width="172.314" height="172.314"/></clipPath><g clip-path="url(#_clip1)"><path d="M172.51,172.333l-172.333,0l0,-172.333l172.333,0l0,172.333ZM95.909,148.79l-11.916,-18.839l11.982,-18.041l-9.519,0l-6.79,11.184l-7.057,-11.184l-10.518,0l11.916,18.906l-11.916,17.974l9.453,0l6.79,-11.117l7.057,11.117l10.518,0ZM46.415,148.79l0,-47.265l-16.643,0l0,8.588l7.057,0l0,38.677l9.586,0ZM139.07,131.215l0,-30.355l-10.851,0l-21.701,31.154l0,7.323l23.232,0l0,9.453l9.32,0l0,-9.453l5.858,0l0,-8.122l-5.858,0ZM130.35,131.215l-13.314,0l13.314,-20.237l0,20.237ZM45.36,79.504l0,-58.518l-23.076,0l0,58.518l23.076,0ZM151.481,20.986l-23.077,0l0,58.518l23.077,0l0,-58.518ZM80.916,79.504l0,-58.518l-23.077,0l0,58.518l23.077,0ZM116.342,20.986l-23.076,0l0,58.518l23.076,0l0,-58.518Z" style="fill:#fff;"/></g></svg>