<?xml version="1.0" standalone="no"?><!DOCTYPE svg PUBLIC "-//W3C//DTD SVG 1.1//EN" "http://www.w3.org/Graphics/SVG/1.1/DTD/svg11.dtd"><svg width="100%" height="100%" viewBox="0 0 173 173" version="1.1" xmlns="http://www.w3.org/2000/svg" xmlns:xlink="http://www.w3.org/1999/xlink" xml:space="preserve" style="fill-rule:evenodd;clip-rule:evenodd;stroke-linejoin:round;stroke-miterlimit:1.41421;"><clipPath id="_clip1"><rect id="Prancheta1" x="0" y="0" width="172.291" height="172.123"/></clipPath><g clip-path="url(#_clip1)"><path d="M172.314,172.115l-172.314,0l0,-172.314l172.314,0l0,172.314ZM79.527,112.026l-10.424,0l11.809,18.736l-11.809,17.812l9.368,0l6.729,-11.017l6.993,11.017l10.424,0l-11.809,-18.67l11.875,-17.878l-9.434,0l-6.729,11.083l-6.993,-11.083ZM34.501,140.328c0.616,-0.572 1.727,-1.573 3.332,-3.002c1.605,-1.429 2.804,-2.54 3.595,-3.331c0.792,-0.792 1.88,-1.892 3.266,-3.299c1.385,-1.407 2.452,-2.65 3.199,-3.727c0.748,-1.078 1.518,-2.32 2.309,-3.728c1.584,-2.639 2.375,-5.497 2.375,-8.576c0,-4.134 -1.363,-7.565 -4.09,-10.292c-2.727,-2.726 -6.487,-4.09 -11.281,-4.09c-4.794,0 -8.675,1.342 -11.644,4.024c-2.969,2.683 -4.475,6.598 -4.519,11.743l8.972,0c0.044,-2.463 0.66,-4.398 1.847,-5.805c1.188,-1.408 2.837,-2.111 4.948,-2.111c4.31,0 6.465,2.331 6.465,6.993c0,2.375 -1.077,5.102 -3.232,8.18c-0.836,1.188 -2.122,2.65 -3.859,4.387c-1.738,1.738 -3.2,3.134 -4.388,4.189c-1.187,1.056 -2.968,2.606 -5.343,4.651c-2.375,2.046 -4.134,3.574 -5.278,4.585l0,6.795l32.524,0l0,-7.586l-19.198,0l0,0ZM132.073,140.328c0.616,-0.572 1.727,-1.573 3.332,-3.002c1.605,-1.429 2.804,-2.54 3.595,-3.331c0.792,-0.792 1.88,-1.892 3.266,-3.299c1.385,-1.407 2.452,-2.65 3.199,-3.727c0.748,-1.078 1.518,-2.32 2.309,-3.728c1.584,-2.639 2.375,-5.497 2.375,-8.576c0,-4.134 -1.363,-7.565 -4.09,-10.292c-2.727,-2.726 -6.487,-4.09 -11.281,-4.09c-4.794,0 -8.675,1.342 -11.644,4.024c-2.969,2.683 -4.475,6.598 -4.519,11.743l8.972,0c0.044,-2.463 0.66,-4.398 1.847,-5.805c1.188,-1.408 2.837,-2.111 4.948,-2.111c4.31,0 6.465,2.331 6.465,6.993c0,2.375 -1.077,5.102 -3.232,8.18c-0.836,1.188 -2.122,2.65 -3.86,4.387c-1.737,1.738 -3.199,3.134 -4.387,4.189c-1.187,1.056 -2.968,2.606 -5.343,4.651c-2.375,2.046 -4.134,3.574 -5.278,4.585l0,6.795l32.524,0l0,-7.586l-19.198,0l0,0ZM149.774,55.892l-57.379,0l0,23.073l57.379,0l0,-23.073ZM79.757,55.892l-57.776,0l0,23.073l57.776,0l0,-23.073ZM79.757,20.784l-57.776,0l0,23.074l57.776,0l0,-23.074l0,0ZM149.774,20.784l-57.379,0l0,23.074l57.379,0l0,-23.074l0,0Z" style="fill:#fff;"/></g></svg>