<?xml version="1.0" standalone="no"?><!DOCTYPE svg PUBLIC "-//W3C//DTD SVG 1.1//EN" "http://www.w3.org/Graphics/SVG/1.1/DTD/svg11.dtd"><svg width="100%" height="100%" viewBox="0 0 915 583" version="1.1" xmlns="http://www.w3.org/2000/svg" xmlns:xlink="http://www.w3.org/1999/xlink" xml:space="preserve" style="fill-rule:evenodd;clip-rule:evenodd;stroke-linejoin:round;stroke-miterlimit:1.41421;"><path d="M854.749,518.474l-795.302,0l0,-445.524l795.302,0c0,148.508 0,297.016 0,445.524ZM72.447,85.95l0,419.524l769.302,0l0,-419.524c-256.434,0 -512.868,0 -769.302,0Z" style="fill:#fff;fill-rule:nonzero;"/><path d="M121.42,300.832l47.802,47.803l-9.153,9.153l-54.59,-54.591l-9.153,-9.153l9.153,-9.153l54.59,-54.59l9.153,9.153l-48.507,48.507l672.049,2.618l-47.79,-47.79l9.153,-9.153l63.743,63.744l-9.153,9.153l-54.59,54.59l-9.153,-9.153l48.519,-48.52l-672.073,-2.618Z" style="fill:#fff;"/></svg>