<?xml version="1.0" standalone="no"?><!DOCTYPE svg PUBLIC "-//W3C//DTD SVG 1.1//EN" "http://www.w3.org/Graphics/SVG/1.1/DTD/svg11.dtd"><svg width="100%" height="100%" viewBox="0 0 915 694" version="1.1" xmlns="http://www.w3.org/2000/svg" xmlns:xlink="http://www.w3.org/1999/xlink" xml:space="preserve" style="fill-rule:evenodd;clip-rule:evenodd;stroke-linejoin:round;stroke-miterlimit:1.41421;"><path d="M222.395,399.394l-190.246,0l0,-190.246l190.246,0c0,63.415 0,126.83 0,190.246ZM42.149,219.148l0,170.246l170.246,0l0,-170.246c-56.749,0 -113.497,0 -170.246,0Z" style="fill:#fff;fill-rule:nonzero;"/><path d="M442.294,399.394l-190.246,0l0,-190.246l190.246,0c0,63.415 0,126.83 0,190.246ZM262.048,219.148l0,170.246l170.246,0l0,-170.246c-56.749,0 -113.497,0 -170.246,0Z" style="fill:#fff;fill-rule:nonzero;"/><path d="M661.192,399.394l-190.245,0l0,-190.246l190.245,0c0,63.415 0,126.83 0,190.246ZM480.947,219.148l0,170.246l170.245,0l0,-170.246c-56.748,0 -113.497,0 -170.245,0Z" style="fill:#fff;fill-rule:nonzero;"/><path d="M880.058,399.394l-190.246,0l0,-190.246l190.246,0c0,63.415 0,126.83 0,190.246ZM699.812,219.148l0,170.246l170.246,0l0,-170.246c-56.749,0 -113.497,0 -170.246,0Z" style="fill:#fff;fill-rule:nonzero;"/><g><path d="M79.28,304.271c0,-6.614 2.208,-12.075 6.624,-16.384c4.416,-4.31 9.824,-6.464 16.224,-6.464c4.864,0 9.184,1.237 12.96,3.712c3.776,2.474 6.475,5.952 8.096,10.432l-10.816,0c-2.005,-3.926 -5.419,-5.888 -10.24,-5.888c-4.053,0 -7.349,1.333 -9.888,4c-2.539,2.666 -3.808,6.208 -3.808,10.624c0,4.416 1.269,7.957 3.808,10.624c2.539,2.666 5.653,4 9.344,4c3.691,0 6.592,-0.907 8.704,-2.72c2.112,-1.814 3.424,-4.256 3.936,-7.328l-14.848,0l0,-6.848l24.512,0l0,6.848c-0.768,4.864 -3.157,9.12 -7.168,12.768c-4.011,3.648 -9.056,5.472 -15.136,5.472c-6.08,0 -11.317,-2.155 -15.712,-6.464c-4.395,-4.31 -6.592,-9.771 -6.592,-16.384Z" style="fill:#fff;fill-rule:nonzero;"/><rect x="130.992" y="282.063" width="9.024" height="44.672" style="fill:#fff;fill-rule:nonzero;"/><path d="M149.616,326.735l0,-44.672l27.648,0l0,6.912l-18.624,0l0,11.712l14.208,0l0,6.912l-14.208,0l0,19.136l-9.024,0Z" style="fill:#fff;fill-rule:nonzero;"/></g><g><path d="M298.179,304.271c0,-6.614 2.208,-12.075 6.624,-16.384c4.416,-4.31 9.824,-6.464 16.224,-6.464c4.864,0 9.184,1.237 12.96,3.712c3.776,2.474 6.474,5.952 8.096,10.432l-10.816,0c-2.006,-3.926 -5.419,-5.888 -10.24,-5.888c-4.054,0 -7.35,1.333 -9.888,4c-2.539,2.666 -3.808,6.208 -3.808,10.624c0,4.416 1.269,7.957 3.808,10.624c2.538,2.666 5.653,4 9.344,4c3.69,0 6.592,-0.907 8.704,-2.72c2.112,-1.814 3.424,-4.256 3.936,-7.328l-14.848,0l0,-6.848l24.512,0l0,6.848c-0.768,4.864 -3.158,9.12 -7.168,12.768c-4.011,3.648 -9.056,5.472 -15.136,5.472c-6.08,0 -11.318,-2.155 -15.712,-6.464c-4.395,-4.31 -6.592,-9.771 -6.592,-16.384Z" style="fill:#fff;fill-rule:nonzero;"/><rect x="349.891" y="282.063" width="9.024" height="44.672" style="fill:#fff;fill-rule:nonzero;"/><path d="M368.515,326.735l0,-44.672l27.648,0l0,6.912l-18.624,0l0,11.712l14.208,0l0,6.912l-14.208,0l0,19.136l-9.024,0Z" style="fill:#fff;fill-rule:nonzero;"/></g><g><path d="M519.554,303.887c0,-6.614 2.208,-12.075 6.624,-16.384c4.416,-4.31 9.824,-6.464 16.224,-6.464c4.864,0 9.184,1.237 12.96,3.712c3.776,2.474 6.475,5.952 8.096,10.432l-10.816,0c-2.005,-3.926 -5.419,-5.888 -10.24,-5.888c-4.053,0 -7.349,1.333 -9.888,4c-2.539,2.666 -3.808,6.208 -3.808,10.624c0,4.416 1.269,7.957 3.808,10.624c2.539,2.666 5.653,4 9.344,4c3.691,0 6.592,-0.907 8.704,-2.72c2.112,-1.814 3.424,-4.256 3.936,-7.328l-14.848,0l0,-6.848l24.512,0l0,6.848c-0.768,4.864 -3.157,9.12 -7.168,12.768c-4.011,3.648 -9.056,5.472 -15.136,5.472c-6.08,0 -11.317,-2.155 -15.712,-6.464c-4.395,-4.31 -6.592,-9.771 -6.592,-16.384Z" style="fill:#fff;fill-rule:nonzero;"/><rect x="571.266" y="281.679" width="9.024" height="44.672" style="fill:#fff;fill-rule:nonzero;"/><path d="M589.89,326.351l0,-44.672l27.648,0l0,6.912l-18.624,0l0,11.712l14.208,0l0,6.912l-14.208,0l0,19.136l-9.024,0Z" style="fill:#fff;fill-rule:nonzero;"/></g><g><path d="M738.872,304.911c0,-6.614 2.208,-12.075 6.624,-16.384c4.416,-4.31 9.824,-6.464 16.224,-6.464c4.864,0 9.184,1.237 12.96,3.712c3.776,2.474 6.474,5.952 8.096,10.432l-10.816,0c-2.006,-3.926 -5.419,-5.888 -10.24,-5.888c-4.054,0 -7.35,1.333 -9.888,4c-2.539,2.666 -3.808,6.208 -3.808,10.624c0,4.416 1.269,7.957 3.808,10.624c2.538,2.666 5.653,4 9.344,4c3.69,0 6.592,-0.907 8.704,-2.72c2.112,-1.814 3.424,-4.256 3.936,-7.328l-14.848,0l0,-6.848l24.512,0l0,6.848c-0.768,4.864 -3.158,9.12 -7.168,12.768c-4.011,3.648 -9.056,5.472 -15.136,5.472c-6.08,0 -11.318,-2.155 -15.712,-6.464c-4.395,-4.31 -6.592,-9.771 -6.592,-16.384Z" style="fill:#fff;fill-rule:nonzero;"/><rect x="790.584" y="282.703" width="9.024" height="44.672" style="fill:#fff;fill-rule:nonzero;"/><path d="M809.208,327.375l0,-44.672l27.648,0l0,6.912l-18.624,0l0,11.712l14.208,0l0,6.912l-14.208,0l0,19.136l-9.024,0Z" style="fill:#fff;fill-rule:nonzero;"/></g><g><path d="M272.01,625.527l0,-55.776l-10.176,0l0,-12.384l24,0l0,68.16l-13.824,0Z" style="fill:#fff;fill-rule:nonzero;stroke-width:1px;stroke:#fff;"/><path d="M415.626,558.519l14.496,0l-19.392,67.008l-15.36,0l-12.96,-46.752l-13.344,46.752l-15.36,0l-19.008,-67.008l14.4,0l12.864,51.744l13.536,-51.744l15.264,0l12.768,51.264l12.096,-51.264Z" style="fill:#fff;fill-rule:nonzero;stroke-width:1px;stroke:#fff;"/><path d="M495.306,591.831c0,-6.656 -1.888,-11.968 -5.664,-15.936c-3.776,-3.968 -8.704,-5.952 -14.784,-5.952c-6.08,0 -11.024,2 -14.832,6c-3.808,4 -5.712,9.312 -5.712,15.936c0,6.624 1.904,11.936 5.712,15.936c3.808,4 8.752,6 14.832,6c6.08,0 11.008,-2 14.784,-6c3.776,-4 5.664,-9.328 5.664,-15.984ZM450.474,616.503c-6.592,-6.464 -9.888,-14.672 -9.888,-24.624c0,-9.952 3.312,-18.16 9.936,-24.624c6.624,-6.464 14.752,-9.696 24.384,-9.696c9.632,0 17.744,3.232 24.336,9.696c6.592,6.464 9.888,14.672 9.888,24.624c0,9.952 -3.296,18.16 -9.888,24.624c-6.592,6.464 -14.72,9.696 -24.384,9.696c-9.664,0 -17.792,-3.232 -24.384,-9.696Z" style="fill:#fff;fill-rule:nonzero;stroke-width:1px;stroke:#fff;"/><path d="M539.082,598.839l0,26.688l-13.536,0l0,-67.008l24.672,0c7.744,0 13.712,1.936 17.904,5.808c4.192,3.872 6.288,8.656 6.288,14.352c0,4.224 -1.28,8.16 -3.84,11.808c-2.56,3.648 -6.592,6.144 -12.096,7.488l17.088,27.552l-16.032,0l-16.032,-26.688l-4.416,0ZM539.082,568.887l0,19.584l11.136,0c3.392,0 5.984,-0.88 7.776,-2.64c1.792,-1.76 2.688,-4.144 2.688,-7.152c0,-3.008 -0.896,-5.392 -2.688,-7.152c-1.792,-1.76 -4.384,-2.64 -7.776,-2.64l-11.136,0Z" style="fill:#fff;fill-rule:nonzero;stroke-width:1px;stroke:#fff;"/><path d="M607.146,615.255l9.216,0c7.04,0 12.512,-2.08 16.416,-6.24c3.904,-4.16 5.856,-9.792 5.856,-16.896c0,-7.104 -1.952,-12.736 -5.856,-16.896c-3.904,-4.16 -9.376,-6.24 -16.416,-6.24l-9.216,0l0,46.272ZM616.362,558.519c10.752,0 19.44,3.072 26.064,9.216c6.624,6.144 9.936,14.272 9.936,24.384c0,10.112 -3.312,18.208 -9.936,24.288c-6.624,6.08 -15.312,9.12 -26.064,9.12l-22.752,0l0,-67.008l22.752,0Z" style="fill:#fff;fill-rule:nonzero;stroke-width:1px;stroke:#fff;"/></g><rect x="422.717" y="459.169" width="68.761" height="11.523" style="fill:#fff;"/><rect x="422.717" y="489.733" width="68.761" height="11.523" style="fill:#fff;"/><g><path d="M122.604,70.789l6.93,0l0,34.308l-6.93,0l0,-14.696l-14.746,0l0,14.696l-6.93,0l0,-34.308l6.93,0l0,14.303l14.746,0l0,-14.303Z" style="fill:#fff;fill-rule:nonzero;"/><path d="M177.752,87.845c0,-3.408 -0.967,-6.128 -2.9,-8.159c-1.933,-2.032 -4.456,-3.048 -7.569,-3.048c-3.113,0 -5.644,1.024 -7.594,3.072c-1.95,2.048 -2.925,4.768 -2.925,8.16c0,3.391 0.975,6.111 2.925,8.159c1.95,2.048 4.481,3.072 7.594,3.072c3.113,0 5.636,-1.024 7.569,-3.072c1.933,-2.048 2.9,-4.776 2.9,-8.184ZM154.798,100.477c-3.375,-3.31 -5.062,-7.512 -5.062,-12.607c0,-5.096 1.695,-9.298 5.087,-12.608c3.391,-3.309 7.553,-4.964 12.484,-4.964c4.932,0 9.085,1.655 12.46,4.964c3.375,3.31 5.063,7.512 5.063,12.608c0,5.095 -1.688,9.297 -5.063,12.607c-3.375,3.31 -7.536,4.964 -12.484,4.964c-4.948,0 -9.11,-1.654 -12.485,-4.964Z" style="fill:#fff;fill-rule:nonzero;"/><path d="M243.419,70.789l7.422,0l-9.929,34.308l-7.864,0l-6.636,-23.937l-6.832,23.937l-7.864,0l-9.732,-34.308l7.373,0l6.586,26.493l6.93,-26.493l7.816,0l6.537,26.247l6.193,-26.247Z" style="fill:#fff;fill-rule:nonzero;"/><path d="M306.333,99.838l4.719,0c3.604,0 6.406,-1.065 8.405,-3.195c1.999,-2.13 2.998,-5.013 2.998,-8.651c0,-3.637 -0.999,-6.52 -2.998,-8.65c-1.999,-2.13 -4.801,-3.195 -8.405,-3.195l-4.719,0l0,23.691ZM311.052,70.789c5.505,0 9.953,1.573 13.345,4.719c3.391,3.146 5.087,7.307 5.087,12.484c0,5.178 -1.696,9.323 -5.087,12.436c-3.392,3.113 -7.84,4.669 -13.345,4.669l-11.649,0l0,-34.308l11.649,0Z" style="fill:#fff;fill-rule:nonzero;"/><path d="M375.785,87.845c0,-3.408 -0.967,-6.128 -2.9,-8.159c-1.933,-2.032 -4.457,-3.048 -7.57,-3.048c-3.112,0 -5.644,1.024 -7.593,3.072c-1.95,2.048 -2.925,4.768 -2.925,8.16c0,3.391 0.975,6.111 2.925,8.159c1.949,2.048 4.481,3.072 7.593,3.072c3.113,0 5.637,-1.024 7.57,-3.072c1.933,-2.048 2.9,-4.776 2.9,-8.184ZM352.831,100.477c-3.375,-3.31 -5.063,-7.512 -5.063,-12.607c0,-5.096 1.696,-9.298 5.087,-12.608c3.392,-3.309 7.553,-4.964 12.485,-4.964c4.932,0 9.085,1.655 12.46,4.964c3.375,3.31 5.063,7.512 5.063,12.608c0,5.095 -1.688,9.297 -5.063,12.607c-3.375,3.31 -7.537,4.964 -12.485,4.964c-4.947,0 -9.109,-1.654 -12.484,-4.964Z" style="fill:#fff;fill-rule:nonzero;"/><path d="M422.872,70.691l0,5.308l-12.878,0l0,8.995l11.404,0l0,5.309l-11.404,0l0,9.486l12.878,0l0,5.308l-19.808,0l0,-34.406l19.808,0Z" style="fill:#fff;fill-rule:nonzero;"/><path d="M452.437,76.909c-0.868,0.704 -1.302,1.679 -1.302,2.924c0,1.245 0.319,2.22 0.958,2.925c0.639,0.704 1.483,1.245 2.531,1.622c1.049,0.377 2.196,0.712 3.441,1.007c1.245,0.295 2.49,0.656 3.735,1.082c1.246,0.426 2.393,0.95 3.441,1.573c1.049,0.622 1.892,1.532 2.531,2.728c0.639,1.196 0.959,2.646 0.959,4.349c0,2.819 -1.122,5.243 -3.367,7.275c-2.245,2.032 -5.226,3.047 -8.946,3.047c-3.719,0 -6.725,-0.876 -9.019,-2.629c-2.294,-1.753 -3.441,-4.219 -3.441,-7.398l7.373,0c0.262,3.015 1.983,4.522 5.161,4.522c1.573,0 2.818,-0.409 3.736,-1.228c0.917,-0.82 1.376,-1.909 1.376,-3.269c0,-1.36 -0.606,-2.433 -1.819,-3.219c-1.212,-0.787 -2.679,-1.377 -4.399,-1.77c-1.72,-0.393 -3.449,-0.868 -5.185,-1.425c-1.737,-0.557 -3.212,-1.532 -4.424,-2.925c-1.212,-1.393 -1.819,-3.236 -1.819,-5.529c0,-3.113 1.131,-5.604 3.392,-7.472c2.261,-1.867 5.169,-2.801 8.724,-2.801c3.556,0 6.415,0.811 8.577,2.433c2.163,1.622 3.343,4.088 3.539,7.397l-7.569,0c-0.131,-1.311 -0.623,-2.351 -1.475,-3.121c-0.852,-0.77 -1.966,-1.155 -3.342,-1.155c-1.376,0 -2.499,0.352 -3.367,1.057Z" style="fill:#fff;fill-rule:nonzero;"/><rect x="519.603" y="70.789" width="6.93" height="34.308" style="fill:#fff;fill-rule:nonzero;"/><path d="M546.637,76.098l0,-5.309l25.411,0l0,5.309l-9.29,0l0,28.999l-6.881,0l0,-28.999l-9.24,0Z" style="fill:#fff;fill-rule:nonzero;"/><path d="M659.981,70.789l7.422,0l-9.929,34.308l-7.864,0l-6.636,-23.937l-6.832,23.937l-7.864,0l-9.732,-34.308l7.372,0l6.587,26.493l6.93,-26.493l7.815,0l6.538,26.247l6.193,-26.247Z" style="fill:#fff;fill-rule:nonzero;"/><path d="M712.573,87.845c0,-3.408 -0.967,-6.128 -2.9,-8.159c-1.933,-2.032 -4.456,-3.048 -7.569,-3.048c-3.113,0 -5.645,1.024 -7.594,3.072c-1.95,2.048 -2.925,4.768 -2.925,8.16c0,3.391 0.975,6.111 2.925,8.159c1.949,2.048 4.481,3.072 7.594,3.072c3.113,0 5.636,-1.024 7.569,-3.072c1.933,-2.048 2.9,-4.776 2.9,-8.184ZM689.619,100.477c-3.375,-3.31 -5.062,-7.512 -5.062,-12.607c0,-5.096 1.695,-9.298 5.087,-12.608c3.391,-3.309 7.553,-4.964 12.484,-4.964c4.932,0 9.085,1.655 12.46,4.964c3.375,3.31 5.063,7.512 5.063,12.608c0,5.095 -1.688,9.297 -5.063,12.607c-3.375,3.31 -7.536,4.964 -12.484,4.964c-4.948,0 -9.11,-1.654 -12.485,-4.964Z" style="fill:#fff;fill-rule:nonzero;"/><path d="M746.783,91.433l0,13.664l-6.931,0l0,-34.308l12.632,0c3.965,0 7.021,0.992 9.167,2.974c2.146,1.982 3.22,4.432 3.22,7.348c0,2.163 -0.656,4.178 -1.966,6.046c-1.311,1.868 -3.376,3.146 -6.194,3.834l8.749,14.106l-8.208,0l-8.208,-13.664l-2.261,0ZM746.783,76.098l0,10.027l5.701,0c1.737,0 3.064,-0.451 3.982,-1.352c0.917,-0.901 1.376,-2.122 1.376,-3.662c0,-1.54 -0.459,-2.76 -1.376,-3.662c-0.918,-0.901 -2.245,-1.351 -3.982,-1.351l-5.701,0Z" style="fill:#fff;fill-rule:nonzero;"/><path d="M793.428,105.097l-6.931,0l0,-34.308l6.931,0l0,15.336l12.386,-15.336l9.044,0l-14.893,17.203l14.893,17.105l-8.995,0l-12.435,-15.237l0,15.237Z" style="fill:#fff;fill-rule:nonzero;"/></g></svg>