<?xml version="1.0" standalone="no"?><!DOCTYPE svg PUBLIC "-//W3C//DTD SVG 1.1//EN" "http://www.w3.org/Graphics/SVG/1.1/DTD/svg11.dtd"><svg width="100%" height="100%" viewBox="0 0 915 327" version="1.1" xmlns="http://www.w3.org/2000/svg" xmlns:xlink="http://www.w3.org/1999/xlink" xml:space="preserve" style="fill-rule:evenodd;clip-rule:evenodd;stroke-linejoin:round;stroke-miterlimit:1.41421;"><path d="M439.817,12.372l129.776,0l0,303.512l-228.186,0l0,-212.857l90.656,-90.655l0.111,0l0,0l7.643,0l0,0ZM562.021,19.944l-122.204,0l0,87.537l-7.643,0l0,0l-83.195,0l0,200.832l213.042,0l0,-288.369ZM458.446,193.579l29.451,-29.451l5.404,5.404l-29.451,29.452l32.397,32.397l-5.404,5.404l-32.397,-32.397l-32.397,32.397l-5.404,-5.404l32.397,-32.397l-29.452,-29.452l5.404,-5.404l29.452,29.451ZM355.233,99.909l76.941,0l0,-76.94l-76.941,76.94Z" style="fill:#fff;"/><path d="M442.567,9.622l129.776,0l0,309.012l-233.686,0l0,-216.746l90.767,-90.766l0,-1.5l13.143,0l0,0ZM434.924,15.122l0,0l-1.722,0l-89.045,89.045l0,208.967l222.686,0l0,-298.012l-129.776,0l0,0l-2.143,0ZM437.067,104.731l0,-87.537l127.704,0l0,293.869l-218.542,0l0,-206.332l88.695,0l0,0l2.143,0ZM442.567,22.694l0,87.537l-13.143,0l0,0l-77.695,0l0,195.332l207.542,0l0,-282.869l-116.704,0ZM497.19,169.532l-29.451,29.452l32.397,32.397l-9.293,9.293l0,0l-32.397,-32.397l-32.397,32.397l0,0l-9.294,-9.293l32.397,-32.397l-29.451,-29.452l0,0l9.294,-9.293l29.451,29.451l29.451,-29.451l9.293,9.293ZM492.358,231.381l-32.397,-32.397l29.451,-29.452l-1.515,-1.515l-29.451,29.451l-29.452,-29.451l-1.515,1.515l29.452,29.452c0,0 -32.397,32.397 -32.397,32.397l1.515,1.515l32.397,-32.397l32.397,32.397l1.515,-1.515ZM434.924,19.899l0,82.76l-82.761,0l-1.045,-2.523l81.283,-81.283l2.523,1.046ZM361.873,97.159l67.551,0l0,-67.551l-67.551,67.551Z" style="fill:#fff;"/></svg>